{"title":"Loosies 2012 BRRip.XviD.Ac3.Feel-Free","uid":7124980,"size":1122306008,"categoryP":"video","categoryS":"movies","magnet":"?xt=urn:btih:e0f87621a96ad39bd4ef84d20185c320493b08d8&amp;dn=Loosies+2012+BRRip.XviD.Ac3.Feel-Free&amp;tr=udp%3A%2F%2Ftracker.openbittorrent.com%3A80&amp;tr=udp%3A%2F%2Fopen.demonii.com%3A1337&amp;tr=udp%3A%2F%2Ftracker.coppersurfer.tk%3A6969&amp;tr=udp%3A%2F%2Fexodus.desync.com%3A6969","seeders":0,"leechers":0,"uploader":"joshea","files":9,"time":1332500696,"description":"Genre:Comedy | Drama | Romance \nLanguage:English\nIMDb:http://www.imdb.com/title/tt1568337/\nSource:720p BluRay x264-SHUNPO Thanks!\nEncoder:Tony\n\nFormat : AVI\nFormat/Info : Audio Video Interleave\nFile size : 1.04 GiB\nDuration : 1h 27mn\nOverall bit rate : 1 712 Kbps\n\nVideo\nID : 0\nFormat : MPEG-4 Visual\nFormat profile : Advanced Simple@L5\nFormat settings, BVOP : 1\nFormat settings, QPel : No\nFormat settings, GMC : No warppoints\nFormat settings, Matrix : Default (H.263)\nCodec ID : XVID\nCodec ID/Hint : XviD\nDuration : 1h 27mn\nBit rate : 1 254 Kbps\nWidth : 640 pixels\nHeight : 352 pixels\nDisplay aspect ratio : 16:9\nFrame rate : 24.000 fps\nColor space : YUV\nChroma subsampling : 4:2:0\nBit depth : 8 bits\nScan type : Progressive\nCompression mode : Lossy\nBits/(Pixel*Frame) : 0.232\nStream size : 783 MiB (73%)\nWriting library : XviD 1.2.1 (UTC 2008-12-04)\n\nAudio\nID : 1\nFormat : AC-3\nFormat/Info : Audio Coding 3\nMode extension : CM (complete main)\nCodec ID : 2000\nDuration : 1h 27mn\nBit rate mode : Constant\nBit rate : 448 Kbps\nChannel(s) : 6 channels\nChannel positions : Front: L C R, Side: L R, LFE\nSampling rate : 48.0 KHz\nBit depth : 16 bits\nCompression mode : Lossy\nStream size : 280 MiB (26%)\nAlignment : Aligned on interleaves\nInterleave, duration : 42 ms (1.00 video frame)\nInterleave, preload duration : 512 ms\n\n\nPlot:\nA young pickpocket in the New York subways, living a fast, free, lifestyle is confronted by a woman with whom he had a one night affair.","torrent":{"xt":"urn:btih:e0f87621a96ad39bd4ef84d20185c320493b08d8","amp;dn":"Loosies+2012+BRRip.XviD.Ac3.Feel-Free","amp;tr":["udp%3A%2F%2Ftracker.openbittorrent.com%3A80","udp%3A%2F%2Fopen.demonii.com%3A1337","udp%3A%2F%2Ftracker.coppersurfer.tk%3A6969","udp%3A%2F%2Fexodus.desync.com%3A6969"],"infoHash":"e0f87621a96ad39bd4ef84d20185c320493b08d8","infoHashBuffer":{"type":"Buffer","data":[224,248,118,33,169,106,211,155,212,239,132,210,1,133,195,32,73,59,8,216]},"announce":[],"urlList":[]}}